HIERARCHY
ROOT Hips
{
	OFFSET	0.00	0.00	0.00
	CHANNELS 6 Xposition Yposition Zposition Zrotation Xrotation Yrotation
	JOINT Chest
	{
		OFFSET	0.000000	6.275751	0.000000
		CHANNELS 3 Zrotation Xrotation Yrotation
		JOINT Neck
		{
			OFFSET	0.000000	14.296947	0.000000
			CHANNELS 3 Zrotation Xrotation Yrotation
			JOINT Head
			{
				OFFSET	0.000000	2.637461	0.000000
				CHANNELS 3 Zrotation Xrotation Yrotation
				End Site
				{
					OFFSET	0.000000	4.499004	0.000000
				}
			}
		}
		JOINT LeftCollar
		{
			OFFSET	1.120000	11.362855	1.870000
			CHANNELS 3 Zrotation Xrotation Yrotation
			JOINT LeftUpArm
			{
				OFFSET	4.565688	2.019026	-1.821179
				CHANNELS 3 Zrotation Xrotation Yrotation
				JOINT LeftLowArm
				{
					OFFSET	0.219729	-10.348825	-0.061708
					CHANNELS 3 Zrotation Xrotation Yrotation
					JOINT LeftHand
					{
						OFFSET	0.087892	-10.352228	2.178217
						CHANNELS 3 Zrotation Xrotation Yrotation
						End Site
						{
							OFFSET	0.131837	-6.692379	1.711456
						}
					}
				}
			}
		}
		JOINT RightCollar
		{
			OFFSET	-1.120000	11.362855	1.870000
			CHANNELS 3 Zrotation Xrotation Yrotation
			JOINT RightUpArm
			{
				OFFSET	-4.708080	2.034554	-1.821179
				CHANNELS 3 Zrotation Xrotation Yrotation
				JOINT RightLowArm
				{
					OFFSET	-0.263676	-10.428555	-0.061708
					CHANNELS 3 Zrotation Xrotation Yrotation
					JOINT RightHand
					{
						OFFSET	0.000000	-10.255345	2.178217
						CHANNELS 3 Zrotation Xrotation Yrotation
						End Site
						{
							OFFSET	-0.140882	-6.671274	1.711456
						}
					}
				}
			}
		}
	}
	JOINT LeftUpLeg
	{
		OFFSET	3.910000	0.000000	0.000000
		CHANNELS 3 Zrotation Xrotation Yrotation
		JOINT LeftLowLeg
		{
			OFFSET	-0.441177	-17.569450	1.695613
			CHANNELS 3 Zrotation Xrotation Yrotation
			JOINT LeftFoot
			{
				OFFSET	-0.043946	-17.197315	-1.478076
				CHANNELS 3 Zrotation Xrotation Yrotation
				End Site
				{
					OFFSET	0.000000	-3.933155	5.233925
				}
			}
		}
	}
	JOINT RightUpLeg
	{
		OFFSET	-3.910000	0.000000	0.000000
		CHANNELS 3 Zrotation Xrotation Yrotation
		JOINT RightLowLeg
		{
			OFFSET	0.437741	-17.622387	1.695613
			CHANNELS 3 Zrotation Xrotation Yrotation
			JOINT RightFoot
			{
				OFFSET	0.000000	-17.140001	-1.478076
				CHANNELS 3 Zrotation Xrotation Yrotation
				End Site
				{
					OFFSET	0.000000	-4.038528	5.233925
				}
			}
		}
	}
}
MOTION
Frames: 10
Frame Time: 0.04166667
1.068660	6.395754	13.846734	-22.159578	-9.283525	111.746513	-8.999014	23.853657	4.564925	4.467849	4.204027	-16.320541	9.291025	-21.374296	5.966569	15.232159	-16.245161	-28.276886	2.045853	0.570466	-6.578595	-1.965485	-26.473930	5.719077	-6.486094	2.540524	-1.375677	-7.669621	-7.076054	19.850889	3.383323	-12.317285	59.811741	157.248001	-80.821144	141.563141	-13.172308	2.720347	-2.801652	5.245173	-14.046364	0.754022	-2.001376	-9.181759	-7.555081	-9.966484	5.113200	1.718624	-5.305417	-30.125387	-32.939976	0.002697	26.956554	-16.459736	0.397589	0.956464	4.949441	
1.472139	6.392006	13.976505	-23.006195	-8.076862	110.250458	-8.223338	23.702892	3.993990	3.485565	4.898568	-16.435741	9.880710	-21.762432	6.406693	14.694837	-15.585182	-28.928471	1.859170	0.122087	-6.779160	-2.019694	-27.162924	6.339831	-6.921481	2.551302	-1.467605	-8.509354	-7.553276	21.112503	3.649420	-11.711028	58.753170	157.138672	-80.837166	141.401688	-13.326949	2.727934	-2.833964	4.852871	-13.571011	0.600729	-1.958931	-9.185493	-7.094050	-10.354027	5.050722	1.783283	-4.537295	-30.266020	-35.831448	0.389479	20.192642	-13.277786	-0.030399	-0.350648	5.002439	
1.934360	6.333677	14.155906	-23.719032	-6.662948	109.212631	-7.866263	23.799784	3.813572	3.434901	4.815257	-16.570585	9.450162	-21.593998	6.100237	14.537337	-15.238567	-28.595268	1.631663	-0.445211	-8.235554	-1.977819	-27.958643	6.775582	-7.409455	2.564219	-1.570550	-8.481745	-7.573711	21.028215	3.384951	-11.639190	58.766708	157.819214	-80.536301	142.075607	-13.684434	2.745780	-2.908607	4.073065	-13.086899	1.701082	-1.974169	-9.182346	-7.292216	-11.116428	5.270222	1.973865	-2.987295	-29.781469	-40.098080	0.713034	11.498438	-8.977971	-0.459433	0.958483	5.057015	
2.457239	6.198326	14.387654	-24.204567	-4.984825	108.717674	-7.322930	23.713314	3.471597	3.466851	5.042071	-16.603968	9.198357	-21.586262	5.934241	14.079765	-15.010033	-28.500368	1.240915	-0.642637	-9.192135	-1.868050	-28.747709	7.029881	-8.145253	2.585359	-1.725488	-8.556159	-7.907475	21.212210	3.311337	-11.158691	58.045216	158.092178	-80.340721	142.231995	-14.029874	2.763593	-2.980643	3.049627	-12.424597	3.421402	-2.075274	-9.171009	-8.490165	-12.381797	6.010758	2.385389	1.060884	-27.211414	-44.407032	0.846808	-2.609490	-6.737711	0.761314	5.490376	4.843957	
3.051231	5.956584	14.679366	-24.243464	-2.899076	108.802490	-6.896237	23.542889	3.346191	3.635473	5.436924	-16.975668	8.910079	-21.213779	5.697827	13.530534	-15.134236	-28.962858	0.715620	-0.337469	-10.180752	-1.964673	-29.357639	7.798561	-8.695360	2.602512	-1.841244	-8.393727	-8.170580	21.312962	3.133464	-10.538841	58.020866	154.969650	-78.635590	133.407883	-13.641727	2.743680	-2.899708	2.087350	-13.216590	6.047671	-2.474018	-5.422455	-11.420950	-14.087942	6.622778	2.902910	4.419926	-28.646740	-55.544792	1.305371	-9.200635	-1.426524	-10.115294	7.204103	7.384739	
3.692610	5.601479	15.038274	-23.753599	-0.209120	109.299454	-7.651641	23.891052	4.583697	5.183746	5.254556	-18.291029	8.447358	-20.423735	5.301201	14.137502	-16.999050	-29.860975	-0.931922	0.823537	-12.131897	-2.088782	-29.919552	8.796415	-9.562892	2.631748	-2.023380	-6.953104	-7.584889	19.200352	2.489091	-10.824703	58.673622	153.314224	-76.160126	124.895531	-13.068448	2.715293	-2.779923	2.539032	-20.007307	11.114904	-3.417724	11.468707	-16.700792	-14.333736	3.788776	2.253129	5.622254	-30.265890	-63.820435	1.595063	-9.215649	1.881675	-34.312302	1.239755	10.104500	
4.269484	5.257707	15.372540	-22.828522	2.613424	109.527130	-6.945044	24.082443	4.144248	5.094198	6.099199	-18.765850	8.335341	-20.473919	5.236135	13.355764	-18.088175	-32.340115	-2.383388	2.232128	-10.920987	-2.211072	-29.918364	9.120502	-9.687043	2.636157	-2.049408	-7.617630	-7.828454	19.635054	2.996570	-10.758939	57.364082	152.415771	-74.323586	118.607414	-12.493958	2.688045	-2.659639	3.538508	-24.250807	15.455407	-3.824616	22.697824	-22.011196	-15.790651	6.944565	3.383259	3.919231	-29.874838	-67.599907	1.037847	-9.206003	-4.404084	-43.656689	-0.747297	10.247637	
4.730999	5.114851	15.492590	-22.411161	4.175430	107.890213	-5.344007	23.738779	3.165114	5.976617	6.413577	-16.456833	6.673183	-20.987455	4.232528	12.347624	-19.061344	-33.807186	-3.589217	3.930108	-11.448213	-2.754753	-30.465246	11.076646	-5.883511	2.526746	-1.248304	-7.342833	-8.228036	19.859032	2.897565	-10.360695	57.798244	157.868591	-80.706749	142.445694	-13.846137	2.754080	-2.942346	5.164181	-28.290367	16.577490	-4.136589	30.685848	-23.352297	-17.138317	11.437500	5.033790	-7.279620	-30.759548	-53.628124	0.186504	10.555771	-11.339042	-13.240881	-2.996085	5.760376	
5.173229	5.115197	15.394868	-21.981688	5.792891	104.024239	-4.917304	23.623882	2.629775	7.939103	6.221780	-13.378438	5.159021	-20.526569	3.232504	12.163704	-19.894764	-33.941422	-4.026690	5.267391	-14.589255	-3.816059	-34.078281	16.320662	-0.140205	2.462675	-0.029783	-5.910326	-8.354816	19.362038	2.271135	-9.848660	58.037907	165.488037	-82.545654	157.623505	-13.490264	2.736060	-2.868081	6.460651	-30.328089	17.368727	-4.189883	35.539341	-22.554972	-19.440098	14.541945	6.812515	-6.941821	-30.540958	-48.093403	0.288162	11.615240	-12.667153	-13.276033	-3.190326	5.716438	
5.654598	5.133496	15.182150	-20.847876	7.877271	98.563538	-4.390480	23.221645	1.272026	7.828247	7.588066	-11.057241	5.538427	-19.731506	3.407007	11.290237	-19.330244	-34.935143	-4.174333	6.783718	-21.312544	-12.437564	-36.665428	51.955727	3.971556	2.491849	0.843427	-6.536444	-9.175732	21.447094	2.812028	-8.304326	56.065060	154.573013	-75.972328	127.254868	-13.213264	2.722358	-2.810194	7.162990	-30.372015	17.956182	-4.221759	38.224995	-22.142267	-22.787153	16.954039	9.061957	-6.824062	-29.923731	-43.456585	0.387199	13.424646	-11.201517	-11.754511	-3.537773	5.559114	
